<svg xmlns="http://www.w3.org/2000/svg" viewBox="0 0 64 64" role="img" aria-label="Pakistan cricket crest">
  <defs>
    <linearGradient id="bg" x1="0" y1="0" x2="1" y2="1">
      <stop offset="0%" stop-color="#0d8f45" />
      <stop offset="100%" stop-color="#0b7137" />
    </linearGradient>
    <linearGradient id="bat" x1="0" y1="0" x2="1" y2="1">
      <stop offset="0%" stop-color="#f5d6a3" />
      <stop offset="100%" stop-color="#e6b76a" />
    </linearGradient>
  </defs>
  <rect width="64" height="64" rx="12" fill="url(#bg)" />
  <rect x="13" y="25" width="11" height="31" rx="2" fill="url(#bat)" transform="rotate(-17 18.5 40.5)" />
  <rect x="17" y="19" width="6" height="10" rx="1.5" fill="#1f3b1f" transform="rotate(-17 20 24)" />
  <circle cx="42" cy="44" r="6" fill="#f7f7f7" stroke="#d6e6d0" stroke-width="1.5" />
  <path d="M37 44c2.5 1.2 5.5 1.2 8 0" fill="none" stroke="#c5d7c0" stroke-width="1.25" stroke-linecap="round" />
  <circle cx="44" cy="20" r="10" fill="#f7f7f7" />
  <circle cx="48" cy="20" r="8" fill="url(#bg)" />
  <path fill="#f7f7f7" d="M44 11.5l2 5.7h6l-4.9 3.6 1.9 5.7-5-3.5-4.9 3.5 1.9-5.7-5-3.6h6z" />
  <path d="M8 50c7.5-1.4 16-3.2 24-5.5" fill="none" stroke="#0f5e2b" stroke-width="3" stroke-linecap="round" opacity="0.35" />
</svg>
